<svg width="1920" height="660" viewBox="0 0 1920 660" fill="none" xmlns="http://www.w3.org/2000/svg">
<rect width="1920" height="648" transform="matrix(1 0 0 -1 0 660)" fill="white"/>
<path d="M0 12.881V0.000165939C8.7083 0.000165939 14.1913 2.76825 19.0292 5.15009C23.2221 7.27443 26.5764 9.01254 32.253 9.01254C37.9295 9.01254 41.2838 7.40318 45.4767 5.15009C50.3146 2.70387 55.6041 0.000165939 64.5059 0.000165939C73.4077 0.000165939 78.6972 2.76825 83.5352 5.15009C87.7281 7.21006 91.1469 9.01254 96.7589 9.01254C102.564 9.01254 105.79 7.40318 109.983 5.15009C114.821 2.70387 120.175 0.000165939 129.012 0.000165939V13.0098C85.9726 13.0098 42.9658 12.881 0 12.881Z" fill="white"/>
<path d="M127.928 12.881V0.000165939C136.636 0.000165939 142.119 2.76825 146.957 5.15009C151.15 7.27443 154.504 9.01254 160.181 9.01254C165.857 9.01254 169.212 7.40318 173.404 5.15009C178.242 2.70387 183.532 0.000165939 192.434 0.000165939C201.335 0.000165939 206.625 2.76825 211.463 5.15009C215.656 7.21006 219.075 9.01254 224.687 9.01254C230.492 9.01254 233.717 7.40318 237.91 5.15009C242.748 2.70387 248.102 0.000165939 256.94 0.000165939V13.0098C213.9 13.0098 170.894 12.881 127.928 12.881Z" fill="white"/>
<path d="M255.855 12.881V0.000165939C264.564 0.000165939 270.047 2.76825 274.885 5.15009C279.078 7.27443 282.432 9.01254 288.108 9.01254C293.785 9.01254 297.139 7.40318 301.332 5.15009C306.17 2.70387 311.46 0.000165939 320.361 0.000165939C329.263 0.000165939 334.553 2.76825 339.391 5.15009C343.584 7.21006 347.002 9.01254 352.614 9.01254C358.42 9.01254 361.645 7.40318 365.838 5.15009C370.676 2.70387 376.03 0.000165939 384.867 0.000165939V13.0098C341.828 13.0098 298.821 12.881 255.855 12.881Z" fill="white"/>
<path d="M383.783 12.881V0.000165939C392.492 0.000165939 397.975 2.76825 402.812 5.15009C407.005 7.27443 410.36 9.01254 416.036 9.01254C421.713 9.01254 425.067 7.40318 429.26 5.15009C434.098 2.70387 439.387 0.000165939 448.289 0.000165939C457.191 0.000165939 462.48 2.76825 467.318 5.15009C471.511 7.21006 474.93 9.01254 480.542 9.01254C486.348 9.01254 489.573 7.40318 493.766 5.15009C498.604 2.70387 503.958 0.000165939 512.795 0.000165939V13.0098C469.756 13.0098 426.749 12.881 383.783 12.881Z" fill="white"/>
<path d="M511.711 12.881V0.000165939C520.419 0.000165939 525.902 2.76825 530.74 5.15009C534.933 7.27443 538.287 9.01254 543.964 9.01254C549.64 9.01254 552.995 7.40318 557.188 5.15009C562.026 2.70387 567.315 0.000165939 576.217 0.000165939C585.119 0.000165939 590.408 2.76825 595.246 5.15009C599.439 7.21006 602.858 9.01254 608.47 9.01254C614.275 9.01254 617.501 7.40318 621.694 5.15009C626.531 2.70387 631.885 0.000165939 640.723 0.000165939V13.0098C597.684 13.0098 554.677 12.881 511.711 12.881Z" fill="white"/>
<path d="M639.639 12.881V0.000165939C648.347 0.000165939 653.83 2.76825 658.668 5.15009C662.861 7.27443 666.215 9.01254 671.892 9.01254C677.568 9.01254 680.922 7.40318 685.115 5.15009C689.953 2.70387 695.243 0.000165939 704.145 0.000165939C713.046 0.000165939 718.336 2.76825 723.174 5.15009C727.367 7.21006 730.785 9.01254 736.398 9.01254C742.203 9.01254 745.428 7.40318 749.621 5.15009C754.459 2.70387 759.813 0.000165939 768.65 0.000165939V13.0098C725.611 13.0098 682.604 12.881 639.639 12.881Z" fill="white"/>
<path d="M767.566 12.881V0.000165939C776.275 0.000165939 781.758 2.76825 786.596 5.15009C790.788 7.27443 794.143 9.01254 799.819 9.01254C805.496 9.01254 808.85 7.40318 813.043 5.15009C817.881 2.70387 823.17 0.000165939 832.072 0.000165939C840.974 0.000165939 846.264 2.76825 851.102 5.15009C855.294 7.21006 858.713 9.01254 864.325 9.01254C870.131 9.01254 873.356 7.40318 877.549 5.15009C882.387 2.70387 887.741 0.000165939 896.578 0.000165939V13.0098C853.539 13.0098 810.532 12.881 767.566 12.881Z" fill="white"/>
<path d="M895.494 12.881V0.000165939C904.202 0.000165939 909.685 2.76825 914.523 5.15009C918.716 7.27443 922.071 9.01254 927.747 9.01254C933.424 9.01254 936.778 7.40318 940.971 5.15009C945.809 2.70387 951.098 0.000165939 960 0.000165939C968.902 0.000165939 974.191 2.76825 979.029 5.15009C983.222 7.21006 986.641 9.01254 992.253 9.01254C998.059 9.01254 1001.28 7.40318 1005.48 5.15009C1010.31 2.70387 1015.67 0.000165939 1024.51 0.000165939V13.0098C981.467 13.0098 938.46 12.881 895.494 12.881Z" fill="white"/>
<path d="M1023.42 12.881V0.000165939C1032.13 0.000165939 1037.61 2.76825 1042.45 5.15009C1046.64 7.27443 1050 9.01254 1055.67 9.01254C1061.35 9.01254 1064.71 7.40318 1068.9 5.15009C1073.74 2.70387 1079.03 0.000165939 1087.93 0.000165939C1096.83 0.000165939 1102.12 2.76825 1106.96 5.15009C1111.15 7.21006 1114.57 9.01254 1120.18 9.01254C1125.99 9.01254 1129.21 7.40318 1133.4 5.15009C1138.24 2.70387 1143.6 0.000165939 1152.43 0.000165939V13.0098C1109.39 13.0098 1066.39 12.881 1023.42 12.881Z" fill="white"/>
<path d="M1151.35 12.881V0.000165939C1160.06 0.000165939 1165.54 2.76825 1170.38 5.15009C1174.57 7.27443 1177.93 9.01254 1183.6 9.01254C1189.28 9.01254 1192.63 7.40318 1196.83 5.15009C1201.66 2.70387 1206.95 0.000165939 1215.86 0.000165939C1224.76 0.000165939 1230.05 2.76825 1234.88 5.15009C1239.08 7.21006 1242.5 9.01254 1248.11 9.01254C1253.91 9.01254 1257.14 7.40318 1261.33 5.15009C1266.17 2.70387 1271.52 0.000165939 1280.36 0.000165939V13.0098C1237.32 13.0098 1194.32 12.881 1151.35 12.881Z" fill="white"/>
<path d="M1279.28 12.881V0.000165939C1287.99 0.000165939 1293.47 2.76825 1298.31 5.15009C1302.5 7.27443 1305.85 9.01254 1311.53 9.01254C1317.21 9.01254 1320.56 7.40318 1324.75 5.15009C1329.59 2.70387 1334.88 0.000165939 1343.78 0.000165939C1352.68 0.000165939 1357.97 2.76825 1362.81 5.15009C1367.01 7.21006 1370.42 9.01254 1376.04 9.01254C1381.84 9.01254 1385.07 7.40318 1389.26 5.15009C1394.1 2.70387 1399.45 0.000165939 1408.29 0.000165939V13.0098C1365.25 13.0098 1322.24 12.881 1279.28 12.881Z" fill="white"/>
<path d="M1407.2 12.881V0.000165939C1415.91 0.000165939 1421.4 2.76825 1426.23 5.15009C1430.43 7.27443 1433.78 9.01254 1439.46 9.01254C1445.13 9.01254 1448.49 7.40318 1452.68 5.15009C1457.52 2.70387 1462.81 0.000165939 1471.71 0.000165939C1480.61 0.000165939 1485.9 2.76825 1490.74 5.15009C1494.93 7.21006 1498.35 9.01254 1503.96 9.01254C1509.77 9.01254 1512.99 7.40318 1517.19 5.15009C1522.03 2.70387 1527.38 0.000165939 1536.22 0.000165939V13.0098C1493.18 13.0098 1450.17 12.881 1407.2 12.881Z" fill="white"/>
<path d="M1535.13 12.881V0.000165939C1543.84 0.000165939 1549.32 2.76825 1554.16 5.15009C1558.35 7.27443 1561.71 9.01254 1567.39 9.01254C1573.06 9.01254 1576.42 7.40318 1580.61 5.15009C1585.45 2.70387 1590.74 0.000165939 1599.64 0.000165939C1608.54 0.000165939 1613.83 2.76825 1618.67 5.15009C1622.86 7.21006 1626.28 9.01254 1631.89 9.01254C1637.7 9.01254 1640.92 7.40318 1645.12 5.15009C1649.95 2.70387 1655.31 0.000165939 1664.14 0.000165939V13.0098C1621.11 13.0098 1578.1 12.881 1535.13 12.881Z" fill="white"/>
<path d="M1663.06 12.881V0.000165939C1671.77 0.000165939 1677.25 2.76825 1682.09 5.15009C1686.28 7.27443 1689.64 9.01254 1695.31 9.01254C1700.99 9.01254 1704.34 7.40318 1708.54 5.15009C1713.38 2.70387 1718.66 0.000165939 1727.57 0.000165939C1736.47 0.000165939 1741.76 2.76825 1746.6 5.15009C1750.79 7.21006 1754.21 9.01254 1759.82 9.01254C1765.62 9.01254 1768.85 7.40318 1773.04 5.15009C1777.88 2.70387 1783.23 0.000165939 1792.07 0.000165939V13.0098C1749.03 13.0098 1706.03 12.881 1663.06 12.881Z" fill="white"/>
<path d="M1790.99 12.881V0.000165939C1799.7 0.000165939 1805.18 2.76825 1810.02 5.15009C1814.21 7.27443 1817.56 9.01254 1823.24 9.01254C1828.92 9.01254 1832.27 7.40318 1836.46 5.15009C1841.3 2.70387 1846.59 0.000165939 1855.49 0.000165939C1864.4 0.000165939 1869.69 2.76825 1874.52 5.15009C1878.72 7.21006 1882.14 9.01254 1887.75 9.01254C1893.55 9.01254 1896.78 7.40318 1900.97 5.15009C1905.81 2.70387 1911.16 0.000165939 1920 0.000165939V13.0098C1876.96 13.0098 1833.95 12.881 1790.99 12.881Z" fill="white"/>
</svg>
