<svg width="1920" height="340" viewBox="0 0 1920 340" fill="none" xmlns="http://www.w3.org/2000/svg">
<rect y="10.9998" width="1920" height="329" fill="#F9E0E4"/>
<path d="M0 12.3741V-1.33514e-05C8.7083 -1.33514e-05 14.1913 2.65917 19.0292 4.94732C23.2221 6.98809 26.5764 8.65782 32.253 8.65782C37.9295 8.65782 41.2838 7.11177 45.4767 4.94732C50.3146 2.59733 55.6041 -1.33514e-05 64.5059 -1.33514e-05C73.4077 -1.33514e-05 78.6972 2.65917 83.5352 4.94732C87.7281 6.92625 91.1469 8.65782 96.7589 8.65782C102.564 8.65782 105.79 7.11177 109.983 4.94732C114.821 2.59733 120.175 -1.33514e-05 129.012 -1.33514e-05V12.4978C85.9726 12.4978 42.9658 12.3741 0 12.3741Z" fill="#F9E0E4"/>
<path d="M127.928 12.3741V-1.33514e-05C136.636 -1.33514e-05 142.119 2.65917 146.957 4.94732C151.15 6.98809 154.504 8.65782 160.181 8.65782C165.857 8.65782 169.212 7.11177 173.404 4.94732C178.242 2.59733 183.532 -1.33514e-05 192.434 -1.33514e-05C201.335 -1.33514e-05 206.625 2.65917 211.463 4.94732C215.656 6.92625 219.075 8.65782 224.687 8.65782C230.492 8.65782 233.717 7.11177 237.91 4.94732C242.748 2.59733 248.102 -1.33514e-05 256.94 -1.33514e-05V12.4978C213.9 12.4978 170.894 12.3741 127.928 12.3741Z" fill="#F9E0E4"/>
<path d="M255.855 12.3741V-1.33514e-05C264.564 -1.33514e-05 270.047 2.65917 274.885 4.94732C279.078 6.98809 282.432 8.65782 288.108 8.65782C293.785 8.65782 297.139 7.11177 301.332 4.94732C306.17 2.59733 311.46 -1.33514e-05 320.361 -1.33514e-05C329.263 -1.33514e-05 334.553 2.65917 339.391 4.94732C343.584 6.92625 347.002 8.65782 352.614 8.65782C358.42 8.65782 361.645 7.11177 365.838 4.94732C370.676 2.59733 376.03 -1.33514e-05 384.867 -1.33514e-05V12.4978C341.828 12.4978 298.821 12.3741 255.855 12.3741Z" fill="#F9E0E4"/>
<path d="M383.783 12.3741V-1.33514e-05C392.492 -1.33514e-05 397.975 2.65917 402.812 4.94732C407.005 6.98809 410.36 8.65782 416.036 8.65782C421.713 8.65782 425.067 7.11177 429.26 4.94732C434.098 2.59733 439.387 -1.33514e-05 448.289 -1.33514e-05C457.191 -1.33514e-05 462.48 2.65917 467.318 4.94732C471.511 6.92625 474.93 8.65782 480.542 8.65782C486.348 8.65782 489.573 7.11177 493.766 4.94732C498.604 2.59733 503.958 -1.33514e-05 512.795 -1.33514e-05V12.4978C469.756 12.4978 426.749 12.3741 383.783 12.3741Z" fill="#F9E0E4"/>
<path d="M511.711 12.3741V-1.33514e-05C520.419 -1.33514e-05 525.902 2.65917 530.74 4.94732C534.933 6.98809 538.287 8.65782 543.964 8.65782C549.64 8.65782 552.995 7.11177 557.188 4.94732C562.026 2.59733 567.315 -1.33514e-05 576.217 -1.33514e-05C585.119 -1.33514e-05 590.408 2.65917 595.246 4.94732C599.439 6.92625 602.858 8.65782 608.47 8.65782C614.275 8.65782 617.501 7.11177 621.694 4.94732C626.531 2.59733 631.885 -1.33514e-05 640.723 -1.33514e-05V12.4978C597.684 12.4978 554.677 12.3741 511.711 12.3741Z" fill="#F9E0E4"/>
<path d="M639.639 12.3741V-1.33514e-05C648.347 -1.33514e-05 653.83 2.65917 658.668 4.94732C662.861 6.98809 666.215 8.65782 671.892 8.65782C677.568 8.65782 680.922 7.11177 685.115 4.94732C689.953 2.59733 695.243 -1.33514e-05 704.145 -1.33514e-05C713.046 -1.33514e-05 718.336 2.65917 723.174 4.94732C727.367 6.92625 730.785 8.65782 736.398 8.65782C742.203 8.65782 745.428 7.11177 749.621 4.94732C754.459 2.59733 759.813 -1.33514e-05 768.65 -1.33514e-05V12.4978C725.611 12.4978 682.604 12.3741 639.639 12.3741Z" fill="#F9E0E4"/>
<path d="M767.566 12.3741V-1.33514e-05C776.275 -1.33514e-05 781.758 2.65917 786.596 4.94732C790.788 6.98809 794.143 8.65782 799.819 8.65782C805.496 8.65782 808.85 7.11177 813.043 4.94732C817.881 2.59733 823.17 -1.33514e-05 832.072 -1.33514e-05C840.974 -1.33514e-05 846.264 2.65917 851.102 4.94732C855.294 6.92625 858.713 8.65782 864.325 8.65782C870.131 8.65782 873.356 7.11177 877.549 4.94732C882.387 2.59733 887.741 -1.33514e-05 896.578 -1.33514e-05V12.4978C853.539 12.4978 810.532 12.3741 767.566 12.3741Z" fill="#F9E0E4"/>
<path d="M895.494 12.3741V-1.33514e-05C904.202 -1.33514e-05 909.685 2.65917 914.523 4.94732C918.716 6.98809 922.071 8.65782 927.747 8.65782C933.424 8.65782 936.778 7.11177 940.971 4.94732C945.809 2.59733 951.098 -1.33514e-05 960 -1.33514e-05C968.902 -1.33514e-05 974.191 2.65917 979.029 4.94732C983.222 6.92625 986.641 8.65782 992.253 8.65782C998.059 8.65782 1001.28 7.11177 1005.48 4.94732C1010.31 2.59733 1015.67 -1.33514e-05 1024.51 -1.33514e-05V12.4978C981.467 12.4978 938.46 12.3741 895.494 12.3741Z" fill="#F9E0E4"/>
<path d="M1023.42 12.3741V-1.33514e-05C1032.13 -1.33514e-05 1037.61 2.65917 1042.45 4.94732C1046.64 6.98809 1050 8.65782 1055.67 8.65782C1061.35 8.65782 1064.71 7.11177 1068.9 4.94732C1073.74 2.59733 1079.03 -1.33514e-05 1087.93 -1.33514e-05C1096.83 -1.33514e-05 1102.12 2.65917 1106.96 4.94732C1111.15 6.92625 1114.57 8.65782 1120.18 8.65782C1125.99 8.65782 1129.21 7.11177 1133.4 4.94732C1138.24 2.59733 1143.6 -1.33514e-05 1152.43 -1.33514e-05V12.4978C1109.39 12.4978 1066.39 12.3741 1023.42 12.3741Z" fill="#F9E0E4"/>
<path d="M1151.35 12.3741V-1.33514e-05C1160.06 -1.33514e-05 1165.54 2.65917 1170.38 4.94732C1174.57 6.98809 1177.93 8.65782 1183.6 8.65782C1189.28 8.65782 1192.63 7.11177 1196.83 4.94732C1201.66 2.59733 1206.95 -1.33514e-05 1215.86 -1.33514e-05C1224.76 -1.33514e-05 1230.05 2.65917 1234.88 4.94732C1239.08 6.92625 1242.5 8.65782 1248.11 8.65782C1253.91 8.65782 1257.14 7.11177 1261.33 4.94732C1266.17 2.59733 1271.52 -1.33514e-05 1280.36 -1.33514e-05V12.4978C1237.32 12.4978 1194.32 12.3741 1151.35 12.3741Z" fill="#F9E0E4"/>
<path d="M1279.28 12.3741V-1.33514e-05C1287.99 -1.33514e-05 1293.47 2.65917 1298.31 4.94732C1302.5 6.98809 1305.85 8.65782 1311.53 8.65782C1317.21 8.65782 1320.56 7.11177 1324.75 4.94732C1329.59 2.59733 1334.88 -1.33514e-05 1343.78 -1.33514e-05C1352.68 -1.33514e-05 1357.97 2.65917 1362.81 4.94732C1367.01 6.92625 1370.42 8.65782 1376.04 8.65782C1381.84 8.65782 1385.07 7.11177 1389.26 4.94732C1394.1 2.59733 1399.45 -1.33514e-05 1408.29 -1.33514e-05V12.4978C1365.25 12.4978 1322.24 12.3741 1279.28 12.3741Z" fill="#F9E0E4"/>
<path d="M1407.2 12.3741V-1.33514e-05C1415.91 -1.33514e-05 1421.4 2.65917 1426.23 4.94732C1430.43 6.98809 1433.78 8.65782 1439.46 8.65782C1445.13 8.65782 1448.49 7.11177 1452.68 4.94732C1457.52 2.59733 1462.81 -1.33514e-05 1471.71 -1.33514e-05C1480.61 -1.33514e-05 1485.9 2.65917 1490.74 4.94732C1494.93 6.92625 1498.35 8.65782 1503.96 8.65782C1509.77 8.65782 1512.99 7.11177 1517.19 4.94732C1522.03 2.59733 1527.38 -1.33514e-05 1536.22 -1.33514e-05V12.4978C1493.18 12.4978 1450.17 12.3741 1407.2 12.3741Z" fill="#F9E0E4"/>
<path d="M1535.13 12.3741V-1.33514e-05C1543.84 -1.33514e-05 1549.32 2.65917 1554.16 4.94732C1558.35 6.98809 1561.71 8.65782 1567.39 8.65782C1573.06 8.65782 1576.42 7.11177 1580.61 4.94732C1585.45 2.59733 1590.74 -1.33514e-05 1599.64 -1.33514e-05C1608.54 -1.33514e-05 1613.83 2.65917 1618.67 4.94732C1622.86 6.92625 1626.28 8.65782 1631.89 8.65782C1637.7 8.65782 1640.92 7.11177 1645.12 4.94732C1649.95 2.59733 1655.31 -1.33514e-05 1664.14 -1.33514e-05V12.4978C1621.11 12.4978 1578.1 12.3741 1535.13 12.3741Z" fill="#F9E0E4"/>
<path d="M1663.06 12.3741V-1.33514e-05C1671.77 -1.33514e-05 1677.25 2.65917 1682.09 4.94732C1686.28 6.98809 1689.64 8.65782 1695.31 8.65782C1700.99 8.65782 1704.34 7.11177 1708.54 4.94732C1713.38 2.59733 1718.66 -1.33514e-05 1727.57 -1.33514e-05C1736.47 -1.33514e-05 1741.76 2.65917 1746.6 4.94732C1750.79 6.92625 1754.21 8.65782 1759.82 8.65782C1765.62 8.65782 1768.85 7.11177 1773.04 4.94732C1777.88 2.59733 1783.23 -1.33514e-05 1792.07 -1.33514e-05V12.4978C1749.03 12.4978 1706.03 12.3741 1663.06 12.3741Z" fill="#F9E0E4"/>
<path d="M1790.99 12.3741V-1.33514e-05C1799.7 -1.33514e-05 1805.18 2.65917 1810.02 4.94732C1814.21 6.98809 1817.56 8.65782 1823.24 8.65782C1828.92 8.65782 1832.27 7.11177 1836.46 4.94732C1841.3 2.59733 1846.59 -1.33514e-05 1855.49 -1.33514e-05C1864.4 -1.33514e-05 1869.69 2.65917 1874.52 4.94732C1878.72 6.92625 1882.14 8.65782 1887.75 8.65782C1893.55 8.65782 1896.78 7.11177 1900.97 4.94732C1905.81 2.59733 1911.16 -1.33514e-05 1920 -1.33514e-05V12.4978C1876.96 12.4978 1833.95 12.3741 1790.99 12.3741Z" fill="#F9E0E4"/>
</svg>
