<svg width="62" height="64" viewBox="0 0 62 64" fill="none" xmlns="http://www.w3.org/2000/svg">
<path d="M49.4092 16.4947C50.3391 16.4947 50.6011 15.2373 49.7628 14.8575L17.0317 0.345239C15.0408 -0.545403 12.6964 0.34524 11.8057 2.34919L0.345239 28.0468C-0.545403 30.0377 0.345239 32.3822 2.34919 33.2728L8.95042 36.1281C9.77557 36.4949 10.7186 35.8924 10.7186 34.9886V24.0782C10.7186 19.9001 14.1109 16.5078 18.2891 16.5078H49.4092V16.4947Z" fill="#7DE3B0"/>
<path d="M57.975 20.0574H18.276C16.0624 20.0574 14.2681 21.8518 14.2681 24.0653V52.1075C14.2681 54.321 16.0624 56.1154 18.276 56.1154H23.6067C23.4757 55.3295 23.4103 54.5306 23.4103 53.7185C23.4103 52.8017 23.5019 51.911 23.6591 51.0335H19.3631V37.6083H56.901V51.0204H52.5919C52.7491 51.8979 52.8408 52.7886 52.8408 53.7054C52.8408 54.5175 52.7753 55.3164 52.6443 56.1023H57.975C60.1886 56.1023 61.9829 54.3079 61.9829 52.0944V24.0653C61.9829 21.8518 60.1886 20.0574 57.975 20.0574ZM56.901 29.3437H19.3631V25.1393H56.901V29.3437Z" fill="#7DE3B0"/>
<path d="M38.1321 43.4103C32.4477 43.4103 27.8373 48.0207 27.8373 53.7051C27.8373 59.3895 32.4477 63.9999 38.1321 63.9999C43.8165 63.9999 48.4268 59.3895 48.4268 53.7051C48.4268 48.0207 43.8165 43.4103 38.1321 43.4103ZM41.0921 57.7654C40.6468 58.3155 40.0574 58.6822 39.3763 58.8656C39.0751 58.9442 38.9441 59.1014 38.9572 59.4157C38.9703 59.717 38.9572 60.0182 38.9572 60.3325C38.9572 60.6076 38.8131 60.7517 38.5512 60.7517C38.2238 60.7648 37.8963 60.7648 37.5689 60.7517C37.2807 60.7517 37.1497 60.5814 37.1497 60.3064C37.1497 60.0837 37.1497 59.861 37.1497 59.6384C37.1497 59.1538 37.1235 59.1276 36.652 59.049C36.0495 58.9573 35.4601 58.8132 34.91 58.5513C34.4778 58.3417 34.4254 58.2369 34.5564 57.7785C34.6481 57.438 34.7398 57.0974 34.8445 56.77C34.9624 56.377 35.0672 56.3378 35.4339 56.5211C36.0495 56.8355 36.6913 57.0188 37.3724 57.0974C37.8046 57.1498 38.2368 57.1105 38.6429 56.9271C39.4025 56.5997 39.5204 55.7222 38.8786 55.1983C38.656 55.0149 38.4202 54.8839 38.1583 54.7791C37.4903 54.491 36.7961 54.2683 36.1805 53.8885C35.1589 53.286 34.5171 52.4477 34.5957 51.2035C34.6743 49.802 35.4732 48.9376 36.7568 48.466C37.2807 48.2696 37.2938 48.2827 37.2938 47.7326C37.2938 47.5492 37.2938 47.3527 37.2938 47.1694C37.3069 46.7502 37.3724 46.6848 37.7915 46.6717C37.9225 46.6717 38.0535 46.6717 38.1714 46.6717C39.062 46.6717 39.062 46.6717 39.062 47.5623C39.062 48.191 39.062 48.191 39.6907 48.2827C40.1622 48.3613 40.6206 48.4922 41.0659 48.6887C41.3148 48.7935 41.4065 48.9638 41.3279 49.2257C41.2231 49.6055 41.1183 49.9985 40.9874 50.3652C40.8695 50.7188 40.7516 50.7712 40.4111 50.6141C39.7169 50.2735 38.9965 50.1425 38.2368 50.1818C38.0404 50.1949 37.8439 50.2211 37.6605 50.2997C37.0057 50.5879 36.8878 51.3213 37.451 51.7667C37.7391 51.9893 38.0535 52.1596 38.394 52.3037C38.9834 52.5394 39.5597 52.7752 40.1229 53.0895C41.8518 54.0457 42.3364 56.2592 41.0921 57.7654Z" fill="#7DE3B0"/>
</svg>
