<svg width="35" height="32" viewBox="0 0 35 32" fill="none" xmlns="http://www.w3.org/2000/svg">
<path d="M33.3794 5.46926C32.7663 4.72217 31.8359 4.30634 30.8703 4.30634H9.91657C9.31748 4.30634 8.7466 4.47549 8.25323 4.77856L7.18193 1.03606C7.00573 0.422881 6.44894 0 5.81462 0H4.18653H1.07835C0.486314 0 0 0.479265 0 1.07835V1.19112C0 1.78315 0.479266 2.26946 1.07835 2.26946H5.1521L7.23127 9.62055L10.0928 19.7627C8.46467 20.1714 7.25946 21.6445 7.25946 23.3924C7.25946 25.3729 8.80298 27.001 10.7553 27.1278C10.5932 27.593 10.5156 28.1075 10.5579 28.6361C10.6989 30.4263 12.1578 31.8712 13.948 31.991C16.0836 32.139 17.8667 30.4404 17.8667 28.3401C17.8667 27.9172 17.7963 27.5155 17.6623 27.1349H21.9475C21.7713 27.6353 21.7009 28.1921 21.7643 28.763C21.9616 30.4968 23.3924 31.8641 25.1403 31.991C27.2758 32.139 29.066 30.4475 29.066 28.3401C29.066 26.3032 27.3745 24.6751 25.3447 24.6751H11.0302C10.3324 24.6751 9.74037 24.1324 9.71217 23.4417C9.68398 22.7087 10.269 22.1096 10.9949 22.1096H13.1446H24.7949H28.0723C29.5242 22.1096 30.7928 21.1159 31.1452 19.7063L33.9926 8.24619C34.2393 7.25946 34.0138 6.2516 33.3794 5.46926ZM25.4081 27.1278C26.0706 27.1278 26.6133 27.6705 26.6133 28.333C26.6133 28.9956 26.0706 29.5383 25.4081 29.5383C24.7456 29.5383 24.2029 28.9956 24.2029 28.333C24.2029 27.6705 24.7386 27.1278 25.4081 27.1278ZM14.2088 27.1278C14.8713 27.1278 15.414 27.6705 15.414 28.333C15.414 28.9956 14.8713 29.5383 14.2088 29.5383C13.5463 29.5383 13.0036 28.9956 13.0036 28.333C13.0036 27.6705 13.5393 27.1278 14.2088 27.1278ZM9.78265 9.60645L9.23291 7.66825C9.14833 7.37223 9.26815 7.15374 9.35273 7.04802C9.43025 6.9423 9.6135 6.7661 9.91657 6.7661H12.2142L12.8415 9.6135H9.78265V9.60645ZM10.4734 12.0592H13.3771L13.9551 14.6951H11.2134L10.4734 12.0592ZM13.1446 19.6428C12.8274 19.6428 12.5455 19.4314 12.4609 19.1213L11.9041 17.1478H14.4907L15.0405 19.6358H13.1446V19.6428ZM19.2834 19.6428H17.5496L16.9998 17.1549H19.2763V19.6428H19.2834ZM19.2834 14.6951H16.4642L15.8862 12.0592H19.2834V14.6951ZM19.2834 9.60645H15.3506L14.7233 6.75905H19.2834V9.60645ZM23.6814 19.6428H21.7431V17.1549H24.2029L23.6814 19.6428ZM24.7245 14.6951H21.7431V12.0592H25.2813L24.7245 14.6951ZM21.7431 9.60645V6.75905H26.3948L25.7958 9.60645H21.7431ZM28.77 19.1072C28.6925 19.4243 28.4106 19.6499 28.0793 19.6499H26.1905L26.7191 17.1619H29.2563L28.77 19.1072ZM29.8625 14.6951H27.2336L27.7903 12.0592H30.5179L29.8625 14.6951ZM31.6104 7.64006L31.1241 9.59941H28.3049L28.9039 6.752H30.9197C31.2227 6.752 31.3989 6.92116 31.4765 7.02688C31.561 7.1326 31.6879 7.35109 31.6104 7.64006Z" fill="#EAFAF2"/>
</svg>
