<svg width="16" height="15" viewBox="0 0 16 15" fill="none" xmlns="http://www.w3.org/2000/svg">
<path d="M4 14.8571C3.84845 14.8571 3.7031 14.7969 3.59594 14.6898C3.48878 14.5826 3.42857 14.4373 3.42857 14.2857V12H2.57143C1.88968 11.9992 1.23606 11.7281 0.753989 11.246C0.271917 10.7639 0.000756244 10.1103 0 9.42857V2.57143C0.000756244 1.88968 0.271917 1.23606 0.753989 0.753989C1.23606 0.271917 1.88968 0.000756244 2.57143 0H13.4286C14.1103 0.000756244 14.7639 0.271917 15.246 0.753989C15.7281 1.23606 15.9992 1.88968 16 2.57143V9.42857C15.9992 10.1103 15.7281 10.7639 15.246 11.246C14.7639 11.7281 14.1103 11.9992 13.4286 12H7.63357L4.36607 14.7246C4.26324 14.8102 4.13375 14.857 4 14.8571Z" fill="#7DE3B0"/>
</svg>
