<svg width="55" height="55" viewBox="0 0 55 55" fill="none" xmlns="http://www.w3.org/2000/svg">
<circle cx="27.5" cy="27.5" r="27.5" fill="url(#paint0_radial_136_734)"/>
<circle cx="27.5" cy="27.5" r="27.5" fill="url(#paint1_radial_136_734)"/>
<path d="M27.9628 18.7571C25.787 18.7571 23.7003 19.6214 22.1617 21.16C20.6231 22.6985 19.7588 24.7853 19.7588 26.9611C19.7588 29.137 20.6231 31.2237 22.1617 32.7622C23.7003 34.3008 25.787 35.1652 27.9628 35.1652C30.1387 35.1652 32.2254 34.3008 33.764 32.7622C35.3025 31.2237 36.1669 29.137 36.1669 26.9611C36.1669 24.7853 35.3025 22.6985 33.764 21.16C32.2254 19.6214 30.1387 18.7571 27.9628 18.7571ZM27.9628 32.2891C26.5493 32.2891 25.1936 31.7276 24.1941 30.7281C23.1946 29.7285 22.633 28.3729 22.633 26.9593C22.633 25.5458 23.1946 24.1901 24.1941 23.1906C25.1936 22.1911 26.5493 21.6296 27.9628 21.6296C29.3764 21.6296 30.732 22.1911 31.7316 23.1906C32.7311 24.1901 33.2926 25.5458 33.2926 26.9593C33.2926 28.3729 32.7311 29.7285 31.7316 30.7281C30.732 31.7276 29.3764 32.2891 27.9628 32.2891Z" fill="white"/>
<path d="M36.4916 20.368C37.5479 20.368 38.4042 19.5117 38.4042 18.4554C38.4042 17.3991 37.5479 16.5428 36.4916 16.5428C35.4353 16.5428 34.579 17.3991 34.579 18.4554C34.579 19.5117 35.4353 20.368 36.4916 20.368Z" fill="white"/>
<path d="M43.104 16.5108C42.6933 15.4501 42.0656 14.4869 41.2612 13.6827C40.4568 12.8786 39.4933 12.2513 38.4325 11.841C37.1911 11.375 35.8797 11.123 34.554 11.0958C32.8454 11.0213 32.3043 11 27.9716 11C23.6389 11 23.0836 11 21.3892 11.0958C20.0646 11.1216 18.7541 11.3737 17.5143 11.841C16.4532 12.2508 15.4895 12.878 14.685 13.6822C13.8805 14.4863 13.253 15.4498 12.8428 16.5108C12.3767 17.752 12.1253 19.0636 12.0994 20.3892C12.0231 22.096 12 22.6372 12 26.9716C12 31.3043 12 31.8561 12.0994 33.554C12.126 34.8811 12.3761 36.1905 12.8428 37.4342C13.2542 38.4948 13.8823 39.4579 14.687 40.262C15.4916 41.066 16.4552 41.6934 17.5161 42.104C18.7535 42.5887 20.0645 42.8587 21.3928 42.9024C23.1014 42.9769 23.6425 43 27.9752 43C32.3078 43 32.8632 43 34.5576 42.9024C35.8831 42.8755 37.1945 42.6241 38.436 42.159C39.4966 41.7477 40.4597 41.1199 41.2641 40.3155C42.0684 39.5112 42.6963 38.548 43.1076 37.4875C43.5742 36.2455 43.8244 34.9361 43.851 33.609C43.9273 31.9022 43.9503 31.3611 43.9503 27.0266C43.9503 22.6922 43.9503 22.1422 43.851 20.4442C43.8303 19.0998 43.5776 17.7691 43.104 16.5108ZM40.943 33.4227C40.9316 34.4452 40.7449 35.4582 40.3912 36.4176C40.1248 37.1076 39.7169 37.7341 39.1937 38.2569C38.6706 38.7797 38.0438 39.1873 37.3537 39.4533C36.4049 39.8054 35.4027 39.992 34.3908 40.0051C32.7053 40.0832 32.2298 40.1027 27.9077 40.1027C23.5822 40.1027 23.1404 40.1027 21.4229 40.0051C20.4115 39.9927 19.4098 39.8061 18.4617 39.4533C17.7692 39.1889 17.1399 38.7821 16.6146 38.2592C16.0892 37.7363 15.6795 37.1089 15.4118 36.4176C15.0631 35.4685 14.8766 34.4674 14.8601 33.4564C14.7838 31.7709 14.766 31.2954 14.766 26.9734C14.766 22.6496 14.766 22.2078 14.8601 20.4886C14.8715 19.4667 15.0582 18.4543 15.4118 17.4955C15.953 16.0956 17.0619 14.9938 18.4617 14.458C19.4102 14.1069 20.4117 13.9203 21.4229 13.9062C23.1102 13.8299 23.5839 13.8086 27.9077 13.8086C32.2315 13.8086 32.6751 13.8086 34.3908 13.9062C35.4028 13.9184 36.4052 14.105 37.3537 14.458C38.0438 14.7246 38.6705 15.1325 39.1936 15.6556C39.7167 16.1787 40.1246 16.8054 40.3912 17.4955C40.7399 18.4446 40.9265 19.4456 40.943 20.4566C41.0193 22.1439 41.0388 22.6177 41.0388 26.9415C41.0388 31.2635 41.0388 31.7283 40.9625 33.4245H40.943V33.4227Z" fill="white"/>
<defs>
<radialGradient id="paint0_radial_136_734" cx="0" cy="0" r="1" gradientUnits="userSpaceOnUse" gradientTransform="translate(14.6094 59.2362) rotate(-90) scale(54.5091 50.6977)">
<stop stop-color="#FFDD55"/>
<stop offset="0.1" stop-color="#FFDD55"/>
<stop offset="0.5" stop-color="#FF543E"/>
<stop offset="1" stop-color="#C837AB"/>
</radialGradient>
<radialGradient id="paint1_radial_136_734" cx="0" cy="0" r="1" gradientUnits="userSpaceOnUse" gradientTransform="translate(-9.21279 3.96211) rotate(78.6806) scale(24.3658 100.437)">
<stop stop-color="#3771C8"/>
<stop offset="0.128" stop-color="#3771C8"/>
<stop offset="1" stop-color="#6600FF" stop-opacity="0"/>
</radialGradient>
</defs>
</svg>
