<svg width="37" height="24" viewBox="0 0 37 24" fill="none" xmlns="http://www.w3.org/2000/svg">
<path fill-rule="evenodd" clip-rule="evenodd" d="M0.451221 10.6271C5.42677 3.67131 11.896 0 18.4025 0C26.0384 0 32.5943 4.8486 36.4525 10.6602L36.4544 10.6631C36.7188 11.0637 36.8583 11.5282 36.8583 12.0011C36.8583 12.4733 36.7192 12.937 36.4557 13.3372C32.6003 19.2241 26.0866 24 18.4025 24C10.6368 24 4.24796 19.2333 0.402376 13.3637C0.131884 12.954 -0.00724527 12.4774 0.000290668 11.9937C0.00784705 11.5087 0.162578 11.035 0.447373 10.6325L0.451221 10.6271ZM2.69492 12.033C6.23003 17.4071 11.8644 21.4286 18.4025 21.4286C24.8695 21.4286 30.6272 17.3865 34.1665 12.0014C30.6129 6.67211 24.8092 2.57143 18.4025 2.57143C13.0306 2.57143 7.31661 5.59734 2.69492 12.033Z" fill="#69593C"/>
<path fill-rule="evenodd" clip-rule="evenodd" d="M18.4291 7.25893C15.8942 7.25893 13.8393 9.23167 13.8393 11.6652C13.8393 14.0987 15.8942 16.0714 18.4291 16.0714C20.964 16.0714 23.019 14.0987 23.019 11.6652C23.019 9.23167 20.964 7.25893 18.4291 7.25893ZM11.1607 11.6652C11.1607 7.81151 14.4149 4.6875 18.4291 4.6875C22.4434 4.6875 25.6975 7.81151 25.6975 11.6652C25.6975 15.5188 22.4434 18.6429 18.4291 18.6429C14.4149 18.6429 11.1607 15.5188 11.1607 11.6652Z" fill="#69593C"/>
</svg>
