<svg width="15" height="14" viewBox="0 0 15 14" fill="none" xmlns="http://www.w3.org/2000/svg">
<path d="M14.5282 6.8853L7.78775 0.153321C7.73922 0.104718 7.68157 0.0661594 7.61811 0.0398506C7.55465 0.0135419 7.48662 0 7.41792 0C7.34922 0 7.28119 0.0135419 7.21773 0.0398506C7.15427 0.0661594 7.09662 0.104718 7.04809 0.153321L0.307648 6.8853C0.111277 7.08157 0 7.34816 0 7.62621C0 8.20356 0.469654 8.67297 1.04731 8.67297H1.75752V13.4766C1.75752 13.7661 1.99153 14 2.28118 14H6.37061V10.3363H8.2034V14H12.5547C12.8443 14 13.0783 13.7661 13.0783 13.4766V8.67297H13.7885C14.0667 8.67297 14.3335 8.56339 14.5298 8.36548C14.9373 7.95659 14.9373 7.29419 14.5282 6.8853Z" fill="#999999"/>
</svg>
