<svg width="82" height="64" viewBox="0 0 82 64" fill="none" xmlns="http://www.w3.org/2000/svg">
<path d="M5.09091 0H0.727273C0.327273 0 0 0.327273 0 0.727273V63.2727C0 63.6727 0.327273 64 0.727273 64H5.09091C5.49091 64 5.81818 63.6727 5.81818 63.2727V0.727273C5.81818 0.327273 5.49091 0 5.09091 0ZM80.8182 0H76.4545C76.0546 0 75.7273 0.327273 75.7273 0.727273V63.2727C75.7273 63.6727 76.0546 64 76.4545 64H80.8182C81.2182 64 81.5455 63.6727 81.5455 63.2727V0.727273C81.5455 0.327273 81.2182 0 80.8182 0ZM12.3636 52.3636H22.5455C22.9455 52.3636 23.2727 52.0364 23.2727 51.6364V0.727273C23.2727 0.327273 22.9455 0 22.5455 0H12.3636C11.9636 0 11.6364 0.327273 11.6364 0.727273V51.6364C11.6364 52.0364 11.9636 52.3636 12.3636 52.3636ZM41.5455 52.3636H45.9091C46.3091 52.3636 46.6364 52.0364 46.6364 51.6364V0.727273C46.6364 0.327273 46.3091 0 45.9091 0H41.5455C41.1455 0 40.8182 0.327273 40.8182 0.727273V51.6364C40.8182 52.0364 41.1455 52.3636 41.5455 52.3636ZM53 52.3636H69.1818C69.5818 52.3636 69.9091 52.0364 69.9091 51.6364V0.727273C69.9091 0.327273 69.5818 0 69.1818 0H53C52.6 0 52.2727 0.327273 52.2727 0.727273V51.6364C52.2727 52.0364 52.6 52.3636 53 52.3636ZM29.8182 52.3636H34.1818C34.5818 52.3636 34.9091 52.0364 34.9091 51.6364V0.727273C34.9091 0.327273 34.5818 0 34.1818 0H29.8182C29.4182 0 29.0909 0.327273 29.0909 0.727273V51.6364C29.0909 52.0364 29.4182 52.3636 29.8182 52.3636ZM22.6364 58.1818H12.4545C12.0545 58.1818 11.7273 58.5091 11.7273 58.9091V63.2727C11.7273 63.6727 12.0545 64 12.4545 64H22.6364C23.0364 64 23.3636 63.6727 23.3636 63.2727V58.9091C23.3636 58.5091 23.0364 58.1818 22.6364 58.1818ZM46 58.1818H41.6364C41.2364 58.1818 40.9091 58.5091 40.9091 58.9091V63.2727C40.9091 63.6727 41.2364 64 41.6364 64H46C46.4 64 46.7273 63.6727 46.7273 63.2727V58.9091C46.7273 58.5091 46.4 58.1818 46 58.1818ZM69.2727 58.1818H53.0909C52.6909 58.1818 52.3636 58.5091 52.3636 58.9091V63.2727C52.3636 63.6727 52.6909 64 53.0909 64H69.2727C69.6727 64 70 63.6727 70 63.2727V58.9091C70 58.5091 69.6727 58.1818 69.2727 58.1818ZM34.2727 58.1818H29.9091C29.5091 58.1818 29.1818 58.5091 29.1818 58.9091V63.2727C29.1818 63.6727 29.5091 64 29.9091 64H34.2727C34.6727 64 35 63.6727 35 63.2727V58.9091C35 58.5091 34.6727 58.1818 34.2727 58.1818Z" fill="#7DE3B0"/>
</svg>
