<svg width="27" height="24" viewBox="0 0 27 24" fill="none" xmlns="http://www.w3.org/2000/svg">
<path fill-rule="evenodd" clip-rule="evenodd" d="M11.1826 22.2736L13.079 24L14.9755 22.2866L15.0271 22.2397C21.7339 16.1451 26.158 12.1247 26.158 7.19346C26.158 3.16512 22.9929 0 18.9646 0C17.5295 0 16.1309 0.421251 14.9359 1.15225C14.2358 1.5805 13.6057 2.11506 13.079 2.73352C12.5524 2.11506 11.9222 1.5805 11.2221 1.15225C10.0271 0.42125 8.6285 0 7.19346 0C3.16512 0 0 3.16512 0 7.19346C0 12.1333 4.43957 16.1591 11.166 22.2585L11.1826 22.2736ZM13.0862 20.112C16.4892 17.0195 19.0829 14.6535 20.8628 12.476C22.6178 10.3289 23.278 8.7194 23.278 7.19346C23.278 4.7557 21.4023 2.88 18.9646 2.88C17.5609 2.88 16.1686 3.54753 15.2717 4.60073L13.079 7.17564L10.8863 4.60073C9.98946 3.54753 8.59718 2.88 7.19346 2.88C4.7557 2.88 2.88 4.7557 2.88 7.19346C2.88 8.71936 3.54026 10.3287 5.29466 12.4736C7.07675 14.6524 9.67563 17.0193 13.0862 20.112Z" fill="#69593C"/>
</svg>
