<svg width="16" height="16" viewBox="0 0 16 16" fill="none" xmlns="http://www.w3.org/2000/svg">
<path d="M15.6689 7.42589L8.3992 0.165359C8.34686 0.11294 8.28468 0.0713538 8.21624 0.0429795C8.1478 0.0146051 8.07443 0 8.00033 0C7.92623 0 7.85286 0.0146051 7.78442 0.0429795C7.71598 0.0713538 7.6538 0.11294 7.60146 0.165359L0.331803 7.42589C0.120014 7.63757 0 7.9251 0 8.22497C0 8.84766 0.506529 9.35392 1.12954 9.35392H1.89551V14.5347C1.89551 14.8469 2.14789 15.0992 2.46028 15.0992H6.87079V11.1479H8.84749V15.0992H13.5404C13.8528 15.0992 14.1052 14.8469 14.1052 14.5347V9.35392H14.8711C15.1712 9.35392 15.4588 9.23573 15.6706 9.02229C16.1101 8.5813 16.1101 7.86689 15.6689 7.42589Z" fill="#7DE3B0"/>
</svg>
