<svg width="55" height="55" viewBox="0 0 55 55" fill="none" xmlns="http://www.w3.org/2000/svg">
<path d="M55 27.6703C55 12.3842 42.6817 0 27.5 0C12.308 0 0 12.3842 0 27.6703C0 41.4778 10.053 52.9265 23.2031 55V35.6705H16.2198V27.6721H23.2031V21.5725C23.2031 14.6393 27.3023 10.8105 33.5861 10.8105C36.5956 10.8105 39.7461 11.35 39.7461 11.35V18.1587H36.2725C32.8625 18.1587 31.7969 20.2945 31.7969 22.4822V27.6703H39.423L38.1975 35.6688H31.7969V54.9983C44.9367 52.9247 55 41.4761 55 27.6686V27.6703Z" fill="#2A89FD"/>
</svg>
