<svg width="26" height="24" viewBox="0 0 26 24" fill="none" xmlns="http://www.w3.org/2000/svg">
<path d="M25.0346 4.10195C24.5747 3.54163 23.8769 3.22976 23.1528 3.22976H7.43743C6.98811 3.22976 6.55995 3.35662 6.18993 3.58392L5.38645 0.777044C5.2543 0.317161 4.83671 0 4.36096 0H0.808761C0.364735 0 0 0.359449 0 0.808761V0.893337C0 1.33736 0.359449 1.7021 0.808761 1.7021H3.86408L7.56958 14.822C6.34851 15.1286 5.4446 16.2334 5.4446 17.5443C5.4446 19.0297 6.60224 20.2507 8.06646 20.3459C7.94488 20.6948 7.88674 21.0806 7.91845 21.4771C8.02417 22.8197 9.11838 23.9034 10.461 23.9932C12.0627 24.1042 13.4001 22.8303 13.4001 21.2551C13.4001 20.9379 13.3472 20.6366 13.2468 20.3512H16.4607C16.3285 20.7265 16.2756 21.1441 16.3232 21.5722C16.4712 22.8726 17.5443 23.8981 18.8552 23.9932C20.4569 24.1042 21.7995 22.8356 21.7995 21.2551C21.7995 19.7274 20.5309 18.5063 19.0085 18.5063H8.27262C7.7493 18.5063 7.30528 18.0993 7.28413 17.5813C7.26299 17.0315 7.70173 16.5822 8.24619 16.5822H21.0542C22.1431 16.5822 23.0946 15.8369 23.3589 14.7797L25.4945 6.18464C25.6795 5.4446 25.5103 4.6887 25.0346 4.10195ZM19.0561 20.3459C19.553 20.3459 19.96 20.7529 19.96 21.2498C19.96 21.7467 19.553 22.1537 19.0561 22.1537C18.5592 22.1537 18.1522 21.7467 18.1522 21.2498C18.1522 20.7529 18.5539 20.3459 19.0561 20.3459ZM10.6566 20.3459C11.1535 20.3459 11.5605 20.7529 11.5605 21.2498C11.5605 21.7467 11.1535 22.1537 10.6566 22.1537C10.1597 22.1537 9.7527 21.7467 9.7527 21.2498C9.7527 20.7529 10.1544 20.3459 10.6566 20.3459ZM7.33699 7.20484L6.92468 5.75119C6.86125 5.52917 6.95111 5.36531 7.01454 5.28602C7.07269 5.20673 7.21013 5.07458 7.43743 5.07458H9.16067L9.63112 7.21013H7.33699V7.20484ZM7.85502 9.04437H10.0329L10.4663 11.0213H8.41005L7.85502 9.04437ZM9.85842 14.7321C9.62055 14.7321 9.40911 14.5736 9.34568 14.341L8.92808 12.8609H10.8681L11.2804 14.7268H9.85842V14.7321ZM14.4625 14.7321H13.1622L12.7499 12.8662H14.4573V14.7321H14.4625ZM14.4625 11.0213H12.3481L11.9147 9.04437H14.4625V11.0213ZM14.4625 7.20484H11.5129L11.0425 5.06929H14.4625V7.20484ZM17.761 14.7321H16.3074V12.8662H18.1522L17.761 14.7321ZM18.5433 11.0213H16.3074V9.04437H18.9609L18.5433 11.0213ZM16.3074 7.20484V5.06929H19.7961L19.3468 7.20484H16.3074ZM21.5775 14.3304C21.5194 14.5683 21.3079 14.7374 21.0595 14.7374H19.6428L20.0393 12.8714H21.9423L21.5775 14.3304ZM22.3969 11.0213H20.4252L20.8428 9.04437H22.8885L22.3969 11.0213ZM23.7078 5.73004L23.3431 7.19955H21.2286L21.678 5.064H23.1898C23.4171 5.064 23.5492 5.19087 23.6074 5.27016C23.6708 5.34945 23.7659 5.51332 23.7078 5.73004Z" fill="#EAFAF2"/>
</svg>
