<svg width="16" height="16" viewBox="0 0 16 16" fill="none" xmlns="http://www.w3.org/2000/svg">
<path fill-rule="evenodd" clip-rule="evenodd" d="M7.52593 1.77778C4.35132 1.77778 1.77778 4.35132 1.77778 7.52593C1.77778 10.7005 4.35131 13.2741 7.52593 13.2741C10.7005 13.2741 13.2741 10.7005 13.2741 7.52593C13.2741 4.35131 10.7005 1.77778 7.52593 1.77778ZM0 7.52593C0 3.36948 3.36948 0 7.52593 0C11.6824 0 15.0519 3.36948 15.0519 7.52593C15.0519 9.28385 14.4491 10.901 13.4391 12.182L15.7397 14.4826C16.0868 14.8297 16.0868 15.3925 15.7397 15.7397C15.3925 16.0868 14.8297 16.0868 14.4826 15.7397L12.182 13.4391C10.901 14.4491 9.28385 15.0519 7.52593 15.0519C3.36948 15.0519 0 11.6824 0 7.52593Z" fill="#69593C"/>
</svg>
