<svg width="38" height="24" viewBox="0 0 38 24" fill="none" xmlns="http://www.w3.org/2000/svg">
<path d="M18.75 16.8C21.5114 16.8 23.75 14.651 23.75 12C23.75 9.34903 21.5114 7.2 18.75 7.2C15.9886 7.2 13.75 9.34903 13.75 12C13.75 14.651 15.9886 16.8 18.75 16.8Z" fill="#69593C"/>
<path d="M29.5953 3.3885C26.1797 1.14 22.5242 0 18.7312 0C15.318 0 11.9906 0.975 8.84141 2.886C5.66562 4.81725 2.55234 8.325 0 12C2.06406 15.3 4.8875 18.693 7.82812 20.6385C11.2016 22.869 14.8695 24 18.7312 24C22.5594 24 26.2195 22.8697 29.6141 20.6407C32.6023 18.675 35.4461 15.2865 37.5 12C35.4391 8.74275 32.5859 5.358 29.5953 3.3885ZM18.75 19.2C17.2666 19.2 15.8166 18.7777 14.5832 17.9866C13.3499 17.1954 12.3886 16.0709 11.8209 14.7553C11.2532 13.4397 11.1047 11.992 11.3941 10.5954C11.6835 9.19869 12.3978 7.91577 13.4467 6.90883C14.4956 5.90189 15.832 5.21616 17.2868 4.93835C18.7417 4.66053 20.2497 4.80312 21.6201 5.34807C22.9906 5.89302 24.1619 6.81586 24.986 7.99989C25.8101 9.18393 26.25 10.576 26.25 12C26.2477 13.9089 25.4568 15.739 24.0508 17.0888C22.6448 18.4385 20.7384 19.1978 18.75 19.2Z" fill="#69593C"/>
</svg>
