<svg width="16" height="16" viewBox="0 0 16 16" fill="none" xmlns="http://www.w3.org/2000/svg">
<path d="M0.8 8C1.128 8.232 1.568 8.344 2 8.344C2.44 8.344 2.872 8.232 3.2 8C3.696 7.632 4 7.064 4 6.4C4 7.064 4.296 7.632 4.8 8C5.128 8.232 5.568 8.344 6 8.344C6.44 8.344 6.872 8.232 7.2 8C7.696 7.632 8 7.064 8 6.4C8 7.064 8.296 7.632 8.8 8C9.128 8.232 9.568 8.344 10.008 8.344C10.44 8.344 10.872 8.232 11.2 8C11.696 7.632 12 7.064 12 6.4C12 7.064 12.296 7.632 12.8 8C13.128 8.232 13.568 8.344 14 8.344C14.44 8.344 14.872 8.232 15.2 8C15.704 7.632 16 7.064 16 6.4V5.6L13.6 0H3.2L0 5.6V6.4C0 7.064 0.296 7.632 0.8 8ZM2.4 15.192H6.4V11.192H9.6V15.192H13.6V9.592C13.304 9.552 13.024 9.416 12.8 9.248C12.296 8.888 12 8.664 12 8C12 8.664 11.696 8.888 11.2 9.248C10.872 9.488 10.44 9.592 10.008 9.6C9.568 9.6 9.128 9.488 8.8 9.248C8.296 8.888 8 8.664 8 8C8 8.664 7.696 8.888 7.2 9.248C6.872 9.488 6.44 9.592 6 9.6C5.568 9.6 5.128 9.488 4.8 9.248C4.296 8.888 4 8.664 4 7.992C4 8.664 3.696 8.888 3.2 9.248C2.968 9.416 2.696 9.552 2.4 9.6V15.192Z" fill="#7DE3B0"/>
</svg>
