<svg width="55" height="64" viewBox="0 0 55 64" fill="none" xmlns="http://www.w3.org/2000/svg">
<path d="M53.585 12.2856C53.343 12.0092 53.0466 11.7858 52.7143 11.6293C52.382 11.4727 52.021 11.3865 51.6538 11.3759C45.9494 11.2267 38.7314 5.1272 33.9591 2.73361C31.0113 1.25968 29.0651 0.287831 27.6036 0.0318186C27.3068 -0.0114236 27.0053 -0.010586 26.7088 0.0343042C25.2473 0.290316 23.3011 1.26217 20.3557 2.7361C15.5834 5.1272 8.36539 11.2267 2.66104 11.3759C2.2936 11.387 1.93237 11.4735 1.59973 11.63C1.2671 11.7865 0.970143 12.0096 0.727283 12.2856C0.223891 12.8551 -0.0358335 13.5995 0.00398672 14.3585C1.22936 39.2712 10.1649 54.6891 25.8438 63.6495C26.2514 63.8807 26.7038 64 27.1537 64C27.6036 64 28.0559 63.8807 28.4661 63.6495C44.1449 54.6891 53.078 39.2712 54.3059 14.3585C54.348 13.5996 54.089 12.8547 53.585 12.2856ZM41.1175 22.0836L27.8869 41.6077C27.4122 42.3086 26.6665 42.7734 25.9283 42.7734C25.1876 42.7734 24.3649 42.3682 23.8454 41.8488L14.5196 32.5205C14.2151 32.2149 14.0442 31.8011 14.0442 31.3697C14.0442 30.9383 14.2151 30.5245 14.5196 30.2189L16.8237 27.9098C17.13 27.6065 17.5435 27.4364 17.9745 27.4364C18.4055 27.4364 18.8191 27.6065 19.1253 27.9098L25.1901 33.9745L35.7264 18.4224C35.9701 18.0665 36.3448 17.8216 36.7686 17.741C37.1924 17.6604 37.6308 17.7508 37.9882 17.9924L40.685 19.8218C41.0413 20.0652 41.2868 20.4397 41.3678 20.8635C41.4489 21.2873 41.3589 21.726 41.1175 22.0836Z" fill="#7DE3B0"/>
</svg>
